<svg width="216" height="333" viewBox="0 0 216 333" fill="none" xmlns="http://www.w3.org/2000/svg">
<rect x="29.7071" y="167.196" width="33" height="10" rx="5" transform="rotate(-45 29.7071 167.196)" fill="url(#paint0_linear_15_308)" fill-opacity="0.5"/>
<rect x="46.6777" y="184.166" width="33" height="10" rx="5" transform="rotate(-45 46.6777 184.166)" fill="url(#paint1_linear_15_308)" fill-opacity="0.5"/>
<rect x="53.7487" y="191.238" width="34" height="10" rx="5" transform="rotate(-135 53.7487 191.238)" fill="url(#paint2_linear_15_308)" fill-opacity="0.5"/>
<rect x="70.0122" y="174.974" width="34" height="10" rx="5" transform="rotate(-135 70.0122 174.974)" fill="url(#paint3_linear_15_308)" fill-opacity="0.5"/>
<rect x="84.1544" y="221.643" width="33" height="10" rx="5" transform="rotate(-45 84.1544 221.643)" fill="url(#paint4_linear_15_308)" fill-opacity="0.5"/>
<rect x="101.125" y="238.614" width="33" height="10" rx="5" transform="rotate(-45 101.125 238.614)" fill="url(#paint5_linear_15_308)" fill-opacity="0.5"/>
<rect x="108.196" y="245.685" width="34" height="10" rx="5" transform="rotate(-135 108.196 245.685)" fill="url(#paint6_linear_15_308)" fill-opacity="0.5"/>
<rect x="60.1127" y="196.187" width="22" height="9" rx="4.5" transform="rotate(-45 60.1127 196.187)" fill="url(#paint7_linear_15_308)" fill-opacity="0.5"/>
<rect x="87.6899" y="168.61" width="22" height="9" rx="4.5" transform="rotate(-45 87.6899 168.61)" fill="url(#paint8_linear_15_308)" fill-opacity="0.5"/>
<rect x="91.2254" y="104.263" width="22" height="9" rx="4.5" transform="rotate(-45 91.2254 104.263)" fill="url(#paint9_linear_15_308)" fill-opacity="0.5"/>
<rect x="115.267" y="166.489" width="50" height="9" rx="4.5" transform="rotate(-45 115.267 166.489)" fill="url(#paint10_linear_15_308)" fill-opacity="0.5"/>
<rect x="82.7401" y="199.016" width="34" height="9" rx="4.5" transform="rotate(-45 82.7401 199.016)" fill="url(#paint11_linear_15_308)" fill-opacity="0.5"/>
<rect x="78.4975" y="215.986" width="27" height="9" rx="4.5" transform="rotate(-135 78.4975 215.986)" fill="url(#paint12_linear_15_308)" fill-opacity="0.5"/>
<rect x="80.6188" y="164.367" width="34" height="9" rx="4.5" transform="rotate(-135 80.6188 164.367)" fill="url(#paint13_linear_15_308)" fill-opacity="0.5"/>
<rect x="101.125" y="163.66" width="34" height="9" rx="4.5" transform="rotate(-135 101.125 163.66)" fill="url(#paint14_linear_15_308)" fill-opacity="0.5"/>
<rect x="135.773" y="216.693" width="50" height="9" rx="4.5" transform="rotate(-135 135.773 216.693)" fill="url(#paint15_linear_15_308)" fill-opacity="0.5"/>
<rect x="114.56" y="153.054" width="51" height="9" rx="4.5" transform="rotate(-135 114.56 153.054)" fill="url(#paint16_linear_15_308)" fill-opacity="0.5"/>
<rect x="132.238" y="125.477" width="44" height="9" rx="4.5" transform="rotate(-135 132.238 125.477)" fill="url(#paint17_linear_15_308)" fill-opacity="0.5"/>
<rect x="121.631" y="136.083" width="27" height="9" rx="4.5" transform="rotate(-135 121.631 136.083)" fill="url(#paint18_linear_15_308)" fill-opacity="0.5"/>
<rect x="150.622" y="203.258" width="17" height="9" rx="4.5" transform="rotate(-135 150.622 203.258)" fill="url(#paint19_linear_15_308)" fill-opacity="0.5"/>
<rect x="126.581" y="179.217" width="17" height="9" rx="4.5" transform="rotate(-135 126.581 179.217)" fill="url(#paint20_linear_15_308)" fill-opacity="0.5"/>
<rect x="124.459" y="229.421" width="34" height="10" rx="5" transform="rotate(-135 124.459 229.421)" fill="url(#paint21_linear_15_308)" fill-opacity="0.5"/>
<circle cx="84.1543" cy="178.51" r="4.5" transform="rotate(-45 84.1543 178.51)" fill="url(#paint22_linear_15_308)" fill-opacity="0.5"/>
<circle cx="135.066" cy="181.338" r="4.5" transform="rotate(-45 135.066 181.338)" fill="url(#paint23_linear_15_308)" fill-opacity="0.5"/>
<circle cx="129.409" cy="138.912" r="4.5" transform="rotate(-45 129.409 138.912)" fill="url(#paint24_linear_15_308)" fill-opacity="0.5"/>
<circle cx="73.5477" cy="129.719" r="4.5" transform="rotate(-45 73.5477 129.719)" fill="url(#paint25_linear_15_308)" fill-opacity="0.5"/>
<circle cx="73.5477" cy="129.719" r="4.5" transform="rotate(-45 73.5477 129.719)" fill="url(#paint26_linear_15_308)" fill-opacity="0.5"/>
<rect x="139.309" y="166.489" width="33" height="10" rx="5" transform="rotate(-45 139.309 166.489)" fill="url(#paint27_linear_15_308)" fill-opacity="0.5"/>
<rect x="156.279" y="183.459" width="33" height="10" rx="5" transform="rotate(-45 156.279 183.459)" fill="url(#paint28_linear_15_308)" fill-opacity="0.5"/>
<rect x="163.35" y="190.53" width="34" height="10" rx="5" transform="rotate(-135 163.35 190.53)" fill="url(#paint29_linear_15_308)" fill-opacity="0.5"/>
<rect x="179.614" y="174.267" width="34" height="10" rx="5" transform="rotate(-135 179.614 174.267)" fill="url(#paint30_linear_15_308)" fill-opacity="0.5"/>
<path d="M105.368 220.229L110.387 221.574L106.712 225.248L105.368 220.229Z" fill="url(#paint31_linear_15_308)" fill-opacity="0.5"/>
<path d="M50.9203 165.782L55.9394 167.127L52.2652 170.801L50.9203 165.782Z" fill="url(#paint32_linear_15_308)" fill-opacity="0.5"/>
<path d="M160.522 165.075L165.541 166.419L161.867 170.094L160.522 165.075Z" fill="url(#paint33_linear_15_308)" fill-opacity="0.5"/>
<rect x="-2.84564" y="308.643" width="33" height="10" rx="5" transform="rotate(-45 -2.84564 308.643)" fill="url(#paint34_linear_15_308)" fill-opacity="0.5"/>
<rect x="14.1249" y="325.614" width="33" height="10" rx="5" transform="rotate(-45 14.1249 325.614)" fill="url(#paint35_linear_15_308)" fill-opacity="0.5"/>
<rect x="21.196" y="332.685" width="34" height="10" rx="5" transform="rotate(-135 21.196 332.685)" fill="url(#paint36_linear_15_308)" fill-opacity="0.5"/>
<rect x="0.68988" y="255.61" width="22" height="9" rx="4.5" transform="rotate(-45 0.68988 255.61)" fill="url(#paint37_linear_15_308)" fill-opacity="0.5"/>
<rect x="4.2254" y="191.263" width="22" height="9" rx="4.5" transform="rotate(-45 4.2254 191.263)" fill="url(#paint38_linear_15_308)" fill-opacity="0.5"/>
<rect x="28.267" y="253.489" width="50" height="9" rx="4.5" transform="rotate(-45 28.267 253.489)" fill="url(#paint39_linear_15_308)" fill-opacity="0.5"/>
<rect x="-4.25989" y="286.016" width="34" height="9" rx="4.5" transform="rotate(-45 -4.25989 286.016)" fill="url(#paint40_linear_15_308)" fill-opacity="0.5"/>
<rect x="14.1249" y="250.66" width="34" height="9" rx="4.5" transform="rotate(-135 14.1249 250.66)" fill="url(#paint41_linear_15_308)" fill-opacity="0.5"/>
<rect x="48.7731" y="303.693" width="50" height="9" rx="4.5" transform="rotate(-135 48.7731 303.693)" fill="url(#paint42_linear_15_308)" fill-opacity="0.5"/>
<rect x="27.5599" y="240.054" width="51" height="9" rx="4.5" transform="rotate(-135 27.5599 240.054)" fill="url(#paint43_linear_15_308)" fill-opacity="0.5"/>
<rect x="45.2376" y="212.477" width="44" height="9" rx="4.5" transform="rotate(-135 45.2376 212.477)" fill="url(#paint44_linear_15_308)" fill-opacity="0.5"/>
<rect x="34.631" y="223.083" width="27" height="9" rx="4.5" transform="rotate(-135 34.631 223.083)" fill="url(#paint45_linear_15_308)" fill-opacity="0.5"/>
<rect x="63.6224" y="290.258" width="17" height="9" rx="4.5" transform="rotate(-135 63.6224 290.258)" fill="url(#paint46_linear_15_308)" fill-opacity="0.5"/>
<rect x="39.5807" y="266.217" width="17" height="9" rx="4.5" transform="rotate(-135 39.5807 266.217)" fill="url(#paint47_linear_15_308)" fill-opacity="0.5"/>
<rect x="37.4594" y="316.421" width="34" height="10" rx="5" transform="rotate(-135 37.4594 316.421)" fill="url(#paint48_linear_15_308)" fill-opacity="0.5"/>
<circle cx="-2.84569" cy="265.51" r="4.5" transform="rotate(-45 -2.84569 265.51)" fill="url(#paint49_linear_15_308)" fill-opacity="0.5"/>
<circle cx="48.066" cy="268.338" r="4.5" transform="rotate(-45 48.066 268.338)" fill="url(#paint50_linear_15_308)" fill-opacity="0.5"/>
<circle cx="42.4092" cy="225.912" r="4.5" transform="rotate(-45 42.4092 225.912)" fill="url(#paint51_linear_15_308)" fill-opacity="0.5"/>
<rect x="52.3087" y="253.489" width="33" height="10" rx="5" transform="rotate(-45 52.3087 253.489)" fill="url(#paint52_linear_15_308)" fill-opacity="0.5"/>
<rect x="69.2792" y="270.459" width="33" height="10" rx="5" transform="rotate(-45 69.2792 270.459)" fill="url(#paint53_linear_15_308)" fill-opacity="0.5"/>
<rect x="76.3503" y="277.53" width="34" height="10" rx="5" transform="rotate(-135 76.3503 277.53)" fill="url(#paint54_linear_15_308)" fill-opacity="0.5"/>
<rect x="92.6138" y="261.267" width="34" height="10" rx="5" transform="rotate(-135 92.6138 261.267)" fill="url(#paint55_linear_15_308)" fill-opacity="0.5"/>
<path d="M18.3675 307.229L23.3866 308.574L19.7124 312.248L18.3675 307.229Z" fill="url(#paint56_linear_15_308)" fill-opacity="0.5"/>
<path d="M73.5218 252.074L78.5409 253.419L74.8667 257.094L73.5218 252.074Z" fill="url(#paint57_linear_15_308)" fill-opacity="0.5"/>
<rect x="-2.84564" y="133.643" width="33" height="10" rx="5" transform="rotate(-45 -2.84564 133.643)" fill="url(#paint58_linear_15_308)" fill-opacity="0.5"/>
<rect x="14.1249" y="150.614" width="33" height="10" rx="5" transform="rotate(-45 14.1249 150.614)" fill="url(#paint59_linear_15_308)" fill-opacity="0.5"/>
<rect x="21.196" y="157.685" width="34" height="10" rx="5" transform="rotate(-135 21.196 157.685)" fill="url(#paint60_linear_15_308)" fill-opacity="0.5"/>
<rect x="0.68988" y="80.6102" width="22" height="9" rx="4.5" transform="rotate(-45 0.68988 80.6102)" fill="url(#paint61_linear_15_308)" fill-opacity="0.5"/>
<rect x="4.2254" y="16.2634" width="22" height="9" rx="4.5" transform="rotate(-45 4.2254 16.2634)" fill="url(#paint62_linear_15_308)" fill-opacity="0.5"/>
<rect x="28.267" y="78.4888" width="50" height="9" rx="4.5" transform="rotate(-45 28.267 78.4888)" fill="url(#paint63_linear_15_308)" fill-opacity="0.5"/>
<rect x="-4.25989" y="111.016" width="34" height="9" rx="4.5" transform="rotate(-45 -4.25989 111.016)" fill="url(#paint64_linear_15_308)" fill-opacity="0.5"/>
<rect x="14.1249" y="75.6604" width="34" height="9" rx="4.5" transform="rotate(-135 14.1249 75.6604)" fill="url(#paint65_linear_15_308)" fill-opacity="0.5"/>
<rect x="48.7731" y="128.693" width="50" height="9" rx="4.5" transform="rotate(-135 48.7731 128.693)" fill="url(#paint66_linear_15_308)" fill-opacity="0.5"/>
<rect x="27.5599" y="65.0538" width="51" height="9" rx="4.5" transform="rotate(-135 27.5599 65.0538)" fill="url(#paint67_linear_15_308)" fill-opacity="0.5"/>
<rect x="45.2376" y="37.4766" width="44" height="9" rx="4.5" transform="rotate(-135 45.2376 37.4766)" fill="url(#paint68_linear_15_308)" fill-opacity="0.5"/>
<rect x="34.631" y="48.0833" width="27" height="9" rx="4.5" transform="rotate(-135 34.631 48.0833)" fill="url(#paint69_linear_15_308)" fill-opacity="0.5"/>
<rect x="63.6224" y="115.258" width="17" height="9" rx="4.5" transform="rotate(-135 63.6224 115.258)" fill="url(#paint70_linear_15_308)" fill-opacity="0.5"/>
<rect x="39.5807" y="91.2167" width="17" height="9" rx="4.5" transform="rotate(-135 39.5807 91.2167)" fill="url(#paint71_linear_15_308)" fill-opacity="0.5"/>
<rect x="37.4594" y="141.421" width="34" height="10" rx="5" transform="rotate(-135 37.4594 141.421)" fill="url(#paint72_linear_15_308)" fill-opacity="0.5"/>
<circle cx="-2.84569" cy="90.5096" r="4.5" transform="rotate(-45 -2.84569 90.5096)" fill="url(#paint73_linear_15_308)" fill-opacity="0.5"/>
<circle cx="48.066" cy="93.3381" r="4.5" transform="rotate(-45 48.066 93.3381)" fill="url(#paint74_linear_15_308)" fill-opacity="0.5"/>
<circle cx="42.4092" cy="50.9117" r="4.5" transform="rotate(-45 42.4092 50.9117)" fill="url(#paint75_linear_15_308)" fill-opacity="0.5"/>
<rect x="52.3087" y="78.4888" width="33" height="10" rx="5" transform="rotate(-45 52.3087 78.4888)" fill="url(#paint76_linear_15_308)" fill-opacity="0.5"/>
<rect x="69.2792" y="95.4594" width="33" height="10" rx="5" transform="rotate(-45 69.2792 95.4594)" fill="url(#paint77_linear_15_308)" fill-opacity="0.5"/>
<rect x="76.3503" y="102.53" width="34" height="10" rx="5" transform="rotate(-135 76.3503 102.53)" fill="url(#paint78_linear_15_308)" fill-opacity="0.5"/>
<rect x="92.6138" y="86.267" width="34" height="10" rx="5" transform="rotate(-135 92.6138 86.267)" fill="url(#paint79_linear_15_308)" fill-opacity="0.5"/>
<path d="M18.3675 132.229L23.3866 133.574L19.7124 137.248L18.3675 132.229Z" fill="url(#paint80_linear_15_308)" fill-opacity="0.5"/>
<path d="M73.5218 77.0746L78.5409 78.4195L74.8667 82.0937L73.5218 77.0746Z" fill="url(#paint81_linear_15_308)" fill-opacity="0.5"/>
<rect x="58.7071" y="13.1959" width="33" height="10" rx="5" transform="rotate(-45 58.7071 13.1959)" fill="url(#paint82_linear_15_308)" fill-opacity="0.5"/>
<rect x="75.6777" y="30.1665" width="33" height="10" rx="5" transform="rotate(-45 75.6777 30.1665)" fill="url(#paint83_linear_15_308)" fill-opacity="0.5"/>
<rect x="82.7487" y="37.2375" width="34" height="10" rx="5" transform="rotate(-135 82.7487 37.2375)" fill="url(#paint84_linear_15_308)" fill-opacity="0.5"/>
<rect x="99.0122" y="20.9741" width="34" height="10" rx="5" transform="rotate(-135 99.0122 20.9741)" fill="url(#paint85_linear_15_308)" fill-opacity="0.5"/>
<rect x="113.154" y="67.6432" width="33" height="10" rx="5" transform="rotate(-45 113.154 67.6432)" fill="url(#paint86_linear_15_308)" fill-opacity="0.5"/>
<rect x="130.125" y="84.6137" width="33" height="10" rx="5" transform="rotate(-45 130.125 84.6137)" fill="url(#paint87_linear_15_308)" fill-opacity="0.5"/>
<rect x="137.196" y="91.6848" width="34" height="10" rx="5" transform="rotate(-135 137.196 91.6848)" fill="url(#paint88_linear_15_308)" fill-opacity="0.5"/>
<rect x="89.1127" y="42.1873" width="22" height="9" rx="4.5" transform="rotate(-45 89.1127 42.1873)" fill="url(#paint89_linear_15_308)" fill-opacity="0.5"/>
<rect x="116.69" y="14.6102" width="22" height="9" rx="4.5" transform="rotate(-45 116.69 14.6102)" fill="url(#paint90_linear_15_308)" fill-opacity="0.5"/>
<rect x="144.267" y="12.4888" width="50" height="9" rx="4.5" transform="rotate(-45 144.267 12.4888)" fill="url(#paint91_linear_15_308)" fill-opacity="0.5"/>
<rect x="111.74" y="45.0157" width="34" height="9" rx="4.5" transform="rotate(-45 111.74 45.0157)" fill="url(#paint92_linear_15_308)" fill-opacity="0.5"/>
<rect x="107.497" y="61.9863" width="27" height="9" rx="4.5" transform="rotate(-135 107.497 61.9863)" fill="url(#paint93_linear_15_308)" fill-opacity="0.5"/>
<rect x="109.619" y="10.3675" width="34" height="9" rx="4.5" transform="rotate(-135 109.619 10.3675)" fill="url(#paint94_linear_15_308)" fill-opacity="0.5"/>
<rect x="130.125" y="9.6604" width="34" height="9" rx="4.5" transform="rotate(-135 130.125 9.6604)" fill="url(#paint95_linear_15_308)" fill-opacity="0.5"/>
<rect x="164.773" y="62.6934" width="50" height="9" rx="4.5" transform="rotate(-135 164.773 62.6934)" fill="url(#paint96_linear_15_308)" fill-opacity="0.5"/>
<rect x="179.622" y="49.2584" width="17" height="9" rx="4.5" transform="rotate(-135 179.622 49.2584)" fill="url(#paint97_linear_15_308)" fill-opacity="0.5"/>
<rect x="155.581" y="25.2167" width="17" height="9" rx="4.5" transform="rotate(-135 155.581 25.2167)" fill="url(#paint98_linear_15_308)" fill-opacity="0.5"/>
<rect x="153.459" y="75.4213" width="34" height="10" rx="5" transform="rotate(-135 153.459 75.4213)" fill="url(#paint99_linear_15_308)" fill-opacity="0.5"/>
<circle cx="113.154" cy="24.5096" r="4.5" transform="rotate(-45 113.154 24.5096)" fill="url(#paint100_linear_15_308)" fill-opacity="0.5"/>
<circle cx="164.066" cy="27.3381" r="4.5" transform="rotate(-45 164.066 27.3381)" fill="url(#paint101_linear_15_308)" fill-opacity="0.5"/>
<rect x="168.309" y="12.4888" width="33" height="10" rx="5" transform="rotate(-45 168.309 12.4888)" fill="url(#paint102_linear_15_308)" fill-opacity="0.5"/>
<rect x="185.279" y="29.4594" width="33" height="10" rx="5" transform="rotate(-45 185.279 29.4594)" fill="url(#paint103_linear_15_308)" fill-opacity="0.5"/>
<rect x="192.35" y="36.5305" width="34" height="10" rx="5" transform="rotate(-135 192.35 36.5305)" fill="url(#paint104_linear_15_308)" fill-opacity="0.5"/>
<rect x="208.614" y="20.267" width="34" height="10" rx="5" transform="rotate(-135 208.614 20.267)" fill="url(#paint105_linear_15_308)" fill-opacity="0.5"/>
<path d="M134.368 66.229L139.387 67.5738L135.712 71.2481L134.368 66.229Z" fill="url(#paint106_linear_15_308)" fill-opacity="0.5"/>
<path d="M79.9203 11.7817L84.9394 13.1266L81.2652 16.8008L79.9203 11.7817Z" fill="url(#paint107_linear_15_308)" fill-opacity="0.5"/>
<path d="M189.522 11.0746L194.541 12.4195L190.867 16.0937L189.522 11.0746Z" fill="url(#paint108_linear_15_308)" fill-opacity="0.5"/>
<defs>
<linearGradient id="paint0_linear_15_308" x1="46.2071" y1="167.196" x2="46.2071" y2="177.196" gradientUnits="userSpaceOnUse">
<stop offset="0.526042" stop-color="#FC9842"/>
<stop offset="1" stop-color="#FFE1C7"/>
</linearGradient>
<linearGradient id="paint1_linear_15_308" x1="63.1777" y1="184.166" x2="63.1777" y2="194.166" gradientUnits="userSpaceOnUse">
<stop offset="0.526042" stop-color="#FC9842"/>
<stop offset="1" stop-color="#FFE1C7"/>
</linearGradient>
<linearGradient id="paint2_linear_15_308" x1="70.7487" y1="191.238" x2="70.7487" y2="201.238" gradientUnits="userSpaceOnUse">
<stop offset="0.526042" stop-color="#FC9842"/>
<stop offset="1" stop-color="#FFE1C7"/>
</linearGradient>
<linearGradient id="paint3_linear_15_308" x1="87.0122" y1="174.974" x2="87.0122" y2="184.974" gradientUnits="userSpaceOnUse">
<stop offset="0.526042" stop-color="#FC9842"/>
<stop offset="1" stop-color="#FFE1C7"/>
</linearGradient>
<linearGradient id="paint4_linear_15_308" x1="100.654" y1="221.643" x2="100.654" y2="231.643" gradientUnits="userSpaceOnUse">
<stop offset="0.526042" stop-color="#FC9842"/>
<stop offset="1" stop-color="#FFE1C7"/>
</linearGradient>
<linearGradient id="paint5_linear_15_308" x1="117.625" y1="238.614" x2="117.625" y2="248.614" gradientUnits="userSpaceOnUse">
<stop offset="0.526042" stop-color="#FC9842"/>
<stop offset="1" stop-color="#FFE1C7"/>
</linearGradient>
<linearGradient id="paint6_linear_15_308" x1="125.196" y1="245.685" x2="125.196" y2="255.685" gradientUnits="userSpaceOnUse">
<stop offset="0.526042" stop-color="#FC9842"/>
<stop offset="1" stop-color="#FFE1C7"/>
</linearGradient>
<linearGradient id="paint7_linear_15_308" x1="71.1127" y1="196.187" x2="71.1127" y2="205.187" gradientUnits="userSpaceOnUse">
<stop offset="0.526042" stop-color="#FC9842"/>
<stop offset="1" stop-color="#FFE1C7"/>
</linearGradient>
<linearGradient id="paint8_linear_15_308" x1="98.6899" y1="168.61" x2="98.6899" y2="177.61" gradientUnits="userSpaceOnUse">
<stop offset="0.526042" stop-color="#FC9842"/>
<stop offset="1" stop-color="#FFE1C7"/>
</linearGradient>
<linearGradient id="paint9_linear_15_308" x1="102.225" y1="104.263" x2="102.225" y2="113.263" gradientUnits="userSpaceOnUse">
<stop offset="0.526042" stop-color="#FC9842"/>
<stop offset="1" stop-color="#FFE1C7"/>
</linearGradient>
<linearGradient id="paint10_linear_15_308" x1="140.267" y1="166.489" x2="140.267" y2="175.489" gradientUnits="userSpaceOnUse">
<stop offset="0.526042" stop-color="#FC9842"/>
<stop offset="1" stop-color="#FFE1C7"/>
</linearGradient>
<linearGradient id="paint11_linear_15_308" x1="99.7401" y1="199.016" x2="99.7401" y2="208.016" gradientUnits="userSpaceOnUse">
<stop offset="0.526042" stop-color="#FC9842"/>
<stop offset="1" stop-color="#FFE1C7"/>
</linearGradient>
<linearGradient id="paint12_linear_15_308" x1="91.9975" y1="215.986" x2="91.9975" y2="224.986" gradientUnits="userSpaceOnUse">
<stop offset="0.526042" stop-color="#FC9842"/>
<stop offset="1" stop-color="#FFE1C7"/>
</linearGradient>
<linearGradient id="paint13_linear_15_308" x1="97.6188" y1="164.367" x2="97.6188" y2="173.367" gradientUnits="userSpaceOnUse">
<stop offset="0.526042" stop-color="#FC9842"/>
<stop offset="1" stop-color="#FFE1C7"/>
</linearGradient>
<linearGradient id="paint14_linear_15_308" x1="118.125" y1="163.66" x2="118.125" y2="172.66" gradientUnits="userSpaceOnUse">
<stop offset="0.526042" stop-color="#FC9842"/>
<stop offset="1" stop-color="#FFE1C7"/>
</linearGradient>
<linearGradient id="paint15_linear_15_308" x1="160.773" y1="216.693" x2="160.773" y2="225.693" gradientUnits="userSpaceOnUse">
<stop offset="0.526042" stop-color="#FC9842"/>
<stop offset="1" stop-color="#FFE1C7"/>
</linearGradient>
<linearGradient id="paint16_linear_15_308" x1="140.06" y1="153.054" x2="140.06" y2="162.054" gradientUnits="userSpaceOnUse">
<stop offset="0.526042" stop-color="#FC9842"/>
<stop offset="1" stop-color="#FFE1C7"/>
</linearGradient>
<linearGradient id="paint17_linear_15_308" x1="154.238" y1="125.477" x2="154.238" y2="134.477" gradientUnits="userSpaceOnUse">
<stop offset="0.526042" stop-color="#FC9842"/>
<stop offset="1" stop-color="#FFE1C7"/>
</linearGradient>
<linearGradient id="paint18_linear_15_308" x1="135.131" y1="136.083" x2="135.131" y2="145.083" gradientUnits="userSpaceOnUse">
<stop offset="0.526042" stop-color="#FC9842"/>
<stop offset="1" stop-color="#FFE1C7"/>
</linearGradient>
<linearGradient id="paint19_linear_15_308" x1="159.122" y1="203.258" x2="159.122" y2="212.258" gradientUnits="userSpaceOnUse">
<stop offset="0.526042" stop-color="#FC9842"/>
<stop offset="1" stop-color="#FFE1C7"/>
</linearGradient>
<linearGradient id="paint20_linear_15_308" x1="135.081" y1="179.217" x2="135.081" y2="188.217" gradientUnits="userSpaceOnUse">
<stop offset="0.526042" stop-color="#FC9842"/>
<stop offset="1" stop-color="#FFE1C7"/>
</linearGradient>
<linearGradient id="paint21_linear_15_308" x1="141.459" y1="229.421" x2="141.459" y2="239.421" gradientUnits="userSpaceOnUse">
<stop offset="0.526042" stop-color="#FC9842"/>
<stop offset="1" stop-color="#FFE1C7"/>
</linearGradient>
<linearGradient id="paint22_linear_15_308" x1="84.1543" y1="174.01" x2="84.1543" y2="183.01" gradientUnits="userSpaceOnUse">
<stop offset="0.526042" stop-color="#FC9842"/>
<stop offset="1" stop-color="#FFE1C7"/>
</linearGradient>
<linearGradient id="paint23_linear_15_308" x1="135.066" y1="176.838" x2="135.066" y2="185.838" gradientUnits="userSpaceOnUse">
<stop offset="0.526042" stop-color="#FC9842"/>
<stop offset="1" stop-color="#FFE1C7"/>
</linearGradient>
<linearGradient id="paint24_linear_15_308" x1="129.409" y1="134.412" x2="129.409" y2="143.412" gradientUnits="userSpaceOnUse">
<stop offset="0.526042" stop-color="#FC9842"/>
<stop offset="1" stop-color="#FFE1C7"/>
</linearGradient>
<linearGradient id="paint25_linear_15_308" x1="73.5477" y1="125.219" x2="73.5477" y2="134.219" gradientUnits="userSpaceOnUse">
<stop offset="0.526042" stop-color="#FC9842"/>
<stop offset="1" stop-color="#FFE1C7"/>
</linearGradient>
<linearGradient id="paint26_linear_15_308" x1="73.5477" y1="125.219" x2="73.5477" y2="134.219" gradientUnits="userSpaceOnUse">
<stop offset="0.526042" stop-color="#FC9842"/>
<stop offset="1" stop-color="#FFE1C7"/>
</linearGradient>
<linearGradient id="paint27_linear_15_308" x1="155.809" y1="166.489" x2="155.809" y2="176.489" gradientUnits="userSpaceOnUse">
<stop offset="0.526042" stop-color="#FC9842"/>
<stop offset="1" stop-color="#FFE1C7"/>
</linearGradient>
<linearGradient id="paint28_linear_15_308" x1="172.779" y1="183.459" x2="172.779" y2="193.459" gradientUnits="userSpaceOnUse">
<stop offset="0.526042" stop-color="#FC9842"/>
<stop offset="1" stop-color="#FFE1C7"/>
</linearGradient>
<linearGradient id="paint29_linear_15_308" x1="180.35" y1="190.53" x2="180.35" y2="200.53" gradientUnits="userSpaceOnUse">
<stop offset="0.526042" stop-color="#FC9842"/>
<stop offset="1" stop-color="#FFE1C7"/>
</linearGradient>
<linearGradient id="paint30_linear_15_308" x1="196.614" y1="174.267" x2="196.614" y2="184.267" gradientUnits="userSpaceOnUse">
<stop offset="0.526042" stop-color="#FC9842"/>
<stop offset="1" stop-color="#FFE1C7"/>
</linearGradient>
<linearGradient id="paint31_linear_15_308" x1="105.368" y1="220.229" x2="109.61" y2="224.472" gradientUnits="userSpaceOnUse">
<stop offset="0.526042" stop-color="#FC9842"/>
<stop offset="1" stop-color="#FFE1C7"/>
</linearGradient>
<linearGradient id="paint32_linear_15_308" x1="50.9203" y1="165.782" x2="55.163" y2="170.024" gradientUnits="userSpaceOnUse">
<stop offset="0.526042" stop-color="#FC9842"/>
<stop offset="1" stop-color="#FFE1C7"/>
</linearGradient>
<linearGradient id="paint33_linear_15_308" x1="160.522" y1="165.075" x2="164.765" y2="169.317" gradientUnits="userSpaceOnUse">
<stop offset="0.526042" stop-color="#FC9842"/>
<stop offset="1" stop-color="#FFE1C7"/>
</linearGradient>
<linearGradient id="paint34_linear_15_308" x1="13.6544" y1="308.643" x2="13.6544" y2="318.643" gradientUnits="userSpaceOnUse">
<stop offset="0.458333" stop-color="#FF9B50"/>
<stop offset="1" stop-color="#FFE1C7"/>
</linearGradient>
<linearGradient id="paint35_linear_15_308" x1="30.6249" y1="325.614" x2="30.6249" y2="335.614" gradientUnits="userSpaceOnUse">
<stop offset="0.458333" stop-color="#FF9B50"/>
<stop offset="1" stop-color="#FFE1C7"/>
</linearGradient>
<linearGradient id="paint36_linear_15_308" x1="38.196" y1="332.685" x2="38.196" y2="342.685" gradientUnits="userSpaceOnUse">
<stop offset="0.458333" stop-color="#FF9B50"/>
<stop offset="1" stop-color="#FFE1C7"/>
</linearGradient>
<linearGradient id="paint37_linear_15_308" x1="11.6899" y1="255.61" x2="11.6899" y2="264.61" gradientUnits="userSpaceOnUse">
<stop offset="0.458333" stop-color="#FF9B50"/>
<stop offset="1" stop-color="#FFE1C7"/>
</linearGradient>
<linearGradient id="paint38_linear_15_308" x1="15.2254" y1="191.263" x2="15.2254" y2="200.263" gradientUnits="userSpaceOnUse">
<stop offset="0.458333" stop-color="#FF9B50"/>
<stop offset="1" stop-color="#FFE1C7"/>
</linearGradient>
<linearGradient id="paint39_linear_15_308" x1="53.267" y1="253.489" x2="53.267" y2="262.489" gradientUnits="userSpaceOnUse">
<stop offset="0.458333" stop-color="#FF9B50"/>
<stop offset="1" stop-color="#FFE1C7"/>
</linearGradient>
<linearGradient id="paint40_linear_15_308" x1="12.7401" y1="286.016" x2="12.7401" y2="295.016" gradientUnits="userSpaceOnUse">
<stop offset="0.458333" stop-color="#FF9B50"/>
<stop offset="1" stop-color="#FFE1C7"/>
</linearGradient>
<linearGradient id="paint41_linear_15_308" x1="31.1249" y1="250.66" x2="31.1249" y2="259.66" gradientUnits="userSpaceOnUse">
<stop offset="0.458333" stop-color="#FF9B50"/>
<stop offset="1" stop-color="#FFE1C7"/>
</linearGradient>
<linearGradient id="paint42_linear_15_308" x1="73.7731" y1="303.693" x2="73.7731" y2="312.693" gradientUnits="userSpaceOnUse">
<stop offset="0.458333" stop-color="#FF9B50"/>
<stop offset="1" stop-color="#FFE1C7"/>
</linearGradient>
<linearGradient id="paint43_linear_15_308" x1="53.0599" y1="240.054" x2="53.0599" y2="249.054" gradientUnits="userSpaceOnUse">
<stop offset="0.458333" stop-color="#FF9B50"/>
<stop offset="1" stop-color="#FFE1C7"/>
</linearGradient>
<linearGradient id="paint44_linear_15_308" x1="67.2376" y1="212.477" x2="67.2376" y2="221.477" gradientUnits="userSpaceOnUse">
<stop offset="0.458333" stop-color="#FF9B50"/>
<stop offset="1" stop-color="#FFE1C7"/>
</linearGradient>
<linearGradient id="paint45_linear_15_308" x1="48.131" y1="223.083" x2="48.131" y2="232.083" gradientUnits="userSpaceOnUse">
<stop offset="0.458333" stop-color="#FF9B50"/>
<stop offset="1" stop-color="#FFE1C7"/>
</linearGradient>
<linearGradient id="paint46_linear_15_308" x1="72.1224" y1="290.258" x2="72.1224" y2="299.258" gradientUnits="userSpaceOnUse">
<stop offset="0.458333" stop-color="#FF9B50"/>
<stop offset="1" stop-color="#FFE1C7"/>
</linearGradient>
<linearGradient id="paint47_linear_15_308" x1="48.0807" y1="266.217" x2="48.0807" y2="275.217" gradientUnits="userSpaceOnUse">
<stop offset="0.458333" stop-color="#FF9B50"/>
<stop offset="1" stop-color="#FFE1C7"/>
</linearGradient>
<linearGradient id="paint48_linear_15_308" x1="54.4594" y1="316.421" x2="54.4594" y2="326.421" gradientUnits="userSpaceOnUse">
<stop offset="0.458333" stop-color="#FF9B50"/>
<stop offset="1" stop-color="#FFE1C7"/>
</linearGradient>
<linearGradient id="paint49_linear_15_308" x1="-2.84569" y1="261.01" x2="-2.84569" y2="270.01" gradientUnits="userSpaceOnUse">
<stop offset="0.458333" stop-color="#FF9B50"/>
<stop offset="1" stop-color="#FFE1C7"/>
</linearGradient>
<linearGradient id="paint50_linear_15_308" x1="48.066" y1="263.838" x2="48.066" y2="272.838" gradientUnits="userSpaceOnUse">
<stop offset="0.458333" stop-color="#FF9B50"/>
<stop offset="1" stop-color="#FFE1C7"/>
</linearGradient>
<linearGradient id="paint51_linear_15_308" x1="42.4092" y1="221.412" x2="42.4092" y2="230.412" gradientUnits="userSpaceOnUse">
<stop offset="0.458333" stop-color="#FF9B50"/>
<stop offset="1" stop-color="#FFE1C7"/>
</linearGradient>
<linearGradient id="paint52_linear_15_308" x1="68.8087" y1="253.489" x2="68.8087" y2="263.489" gradientUnits="userSpaceOnUse">
<stop offset="0.458333" stop-color="#FF9B50"/>
<stop offset="1" stop-color="#FFE1C7"/>
</linearGradient>
<linearGradient id="paint53_linear_15_308" x1="85.7792" y1="270.459" x2="85.7792" y2="280.459" gradientUnits="userSpaceOnUse">
<stop offset="0.458333" stop-color="#FF9B50"/>
<stop offset="1" stop-color="#FFE1C7"/>
</linearGradient>
<linearGradient id="paint54_linear_15_308" x1="93.3503" y1="277.53" x2="93.3503" y2="287.53" gradientUnits="userSpaceOnUse">
<stop offset="0.458333" stop-color="#FF9B50"/>
<stop offset="1" stop-color="#FFE1C7"/>
</linearGradient>
<linearGradient id="paint55_linear_15_308" x1="109.614" y1="261.267" x2="109.614" y2="271.267" gradientUnits="userSpaceOnUse">
<stop offset="0.458333" stop-color="#FF9B50"/>
<stop offset="1" stop-color="#FFE1C7"/>
</linearGradient>
<linearGradient id="paint56_linear_15_308" x1="18.3675" y1="307.229" x2="22.6102" y2="311.471" gradientUnits="userSpaceOnUse">
<stop offset="0.458333" stop-color="#FF9B50"/>
<stop offset="1" stop-color="#FFE1C7"/>
</linearGradient>
<linearGradient id="paint57_linear_15_308" x1="73.5218" y1="252.074" x2="77.7645" y2="256.317" gradientUnits="userSpaceOnUse">
<stop offset="0.458333" stop-color="#FF9B50"/>
<stop offset="1" stop-color="#FFE1C7"/>
</linearGradient>
<linearGradient id="paint58_linear_15_308" x1="13.6544" y1="133.643" x2="13.6544" y2="143.643" gradientUnits="userSpaceOnUse">
<stop offset="0.536458" stop-color="#FF9B50"/>
<stop offset="1" stop-color="#FFE1C7"/>
</linearGradient>
<linearGradient id="paint59_linear_15_308" x1="30.6249" y1="150.614" x2="30.6249" y2="160.614" gradientUnits="userSpaceOnUse">
<stop offset="0.536458" stop-color="#FF9B50"/>
<stop offset="1" stop-color="#FFE1C7"/>
</linearGradient>
<linearGradient id="paint60_linear_15_308" x1="38.196" y1="157.685" x2="38.196" y2="167.685" gradientUnits="userSpaceOnUse">
<stop offset="0.536458" stop-color="#FF9B50"/>
<stop offset="1" stop-color="#FFE1C7"/>
</linearGradient>
<linearGradient id="paint61_linear_15_308" x1="11.6899" y1="80.6102" x2="11.6899" y2="89.6102" gradientUnits="userSpaceOnUse">
<stop offset="0.536458" stop-color="#FF9B50"/>
<stop offset="1" stop-color="#FFE1C7"/>
</linearGradient>
<linearGradient id="paint62_linear_15_308" x1="15.2254" y1="16.2634" x2="15.2254" y2="25.2634" gradientUnits="userSpaceOnUse">
<stop offset="0.536458" stop-color="#FF9B50"/>
<stop offset="1" stop-color="#FFE1C7"/>
</linearGradient>
<linearGradient id="paint63_linear_15_308" x1="53.267" y1="78.4888" x2="53.267" y2="87.4888" gradientUnits="userSpaceOnUse">
<stop offset="0.536458" stop-color="#FF9B50"/>
<stop offset="1" stop-color="#FFE1C7"/>
</linearGradient>
<linearGradient id="paint64_linear_15_308" x1="12.7401" y1="111.016" x2="12.7401" y2="120.016" gradientUnits="userSpaceOnUse">
<stop offset="0.536458" stop-color="#FF9B50"/>
<stop offset="1" stop-color="#FFE1C7"/>
</linearGradient>
<linearGradient id="paint65_linear_15_308" x1="31.1249" y1="75.6604" x2="31.1249" y2="84.6604" gradientUnits="userSpaceOnUse">
<stop offset="0.536458" stop-color="#FF9B50"/>
<stop offset="1" stop-color="#FFE1C7"/>
</linearGradient>
<linearGradient id="paint66_linear_15_308" x1="73.7731" y1="128.693" x2="73.7731" y2="137.693" gradientUnits="userSpaceOnUse">
<stop offset="0.536458" stop-color="#FF9B50"/>
<stop offset="1" stop-color="#FFE1C7"/>
</linearGradient>
<linearGradient id="paint67_linear_15_308" x1="53.0599" y1="65.0538" x2="53.0599" y2="74.0538" gradientUnits="userSpaceOnUse">
<stop offset="0.536458" stop-color="#FF9B50"/>
<stop offset="1" stop-color="#FFE1C7"/>
</linearGradient>
<linearGradient id="paint68_linear_15_308" x1="67.2376" y1="37.4766" x2="67.2376" y2="46.4766" gradientUnits="userSpaceOnUse">
<stop offset="0.536458" stop-color="#FF9B50"/>
<stop offset="1" stop-color="#FFE1C7"/>
</linearGradient>
<linearGradient id="paint69_linear_15_308" x1="48.131" y1="48.0833" x2="48.131" y2="57.0833" gradientUnits="userSpaceOnUse">
<stop offset="0.536458" stop-color="#FF9B50"/>
<stop offset="1" stop-color="#FFE1C7"/>
</linearGradient>
<linearGradient id="paint70_linear_15_308" x1="72.1224" y1="115.258" x2="72.1224" y2="124.258" gradientUnits="userSpaceOnUse">
<stop offset="0.536458" stop-color="#FF9B50"/>
<stop offset="1" stop-color="#FFE1C7"/>
</linearGradient>
<linearGradient id="paint71_linear_15_308" x1="48.0807" y1="91.2167" x2="48.0807" y2="100.217" gradientUnits="userSpaceOnUse">
<stop offset="0.536458" stop-color="#FF9B50"/>
<stop offset="1" stop-color="#FFE1C7"/>
</linearGradient>
<linearGradient id="paint72_linear_15_308" x1="54.4594" y1="141.421" x2="54.4594" y2="151.421" gradientUnits="userSpaceOnUse">
<stop offset="0.536458" stop-color="#FF9B50"/>
<stop offset="1" stop-color="#FFE1C7"/>
</linearGradient>
<linearGradient id="paint73_linear_15_308" x1="-2.84569" y1="86.0096" x2="-2.84569" y2="95.0096" gradientUnits="userSpaceOnUse">
<stop offset="0.536458" stop-color="#FF9B50"/>
<stop offset="1" stop-color="#FFE1C7"/>
</linearGradient>
<linearGradient id="paint74_linear_15_308" x1="48.066" y1="88.8381" x2="48.066" y2="97.8381" gradientUnits="userSpaceOnUse">
<stop offset="0.536458" stop-color="#FF9B50"/>
<stop offset="1" stop-color="#FFE1C7"/>
</linearGradient>
<linearGradient id="paint75_linear_15_308" x1="42.4092" y1="46.4117" x2="42.4092" y2="55.4117" gradientUnits="userSpaceOnUse">
<stop offset="0.536458" stop-color="#FF9B50"/>
<stop offset="1" stop-color="#FFE1C7"/>
</linearGradient>
<linearGradient id="paint76_linear_15_308" x1="68.8087" y1="78.4888" x2="68.8087" y2="88.4888" gradientUnits="userSpaceOnUse">
<stop offset="0.536458" stop-color="#FF9B50"/>
<stop offset="1" stop-color="#FFE1C7"/>
</linearGradient>
<linearGradient id="paint77_linear_15_308" x1="85.7792" y1="95.4594" x2="85.7792" y2="105.459" gradientUnits="userSpaceOnUse">
<stop offset="0.536458" stop-color="#FF9B50"/>
<stop offset="1" stop-color="#FFE1C7"/>
</linearGradient>
<linearGradient id="paint78_linear_15_308" x1="93.3503" y1="102.53" x2="93.3503" y2="112.53" gradientUnits="userSpaceOnUse">
<stop offset="0.536458" stop-color="#FF9B50"/>
<stop offset="1" stop-color="#FFE1C7"/>
</linearGradient>
<linearGradient id="paint79_linear_15_308" x1="109.614" y1="86.267" x2="109.614" y2="96.267" gradientUnits="userSpaceOnUse">
<stop offset="0.536458" stop-color="#FF9B50"/>
<stop offset="1" stop-color="#FFE1C7"/>
</linearGradient>
<linearGradient id="paint80_linear_15_308" x1="18.3675" y1="132.229" x2="22.6102" y2="136.472" gradientUnits="userSpaceOnUse">
<stop offset="0.536458" stop-color="#FF9B50"/>
<stop offset="1" stop-color="#FFE1C7"/>
</linearGradient>
<linearGradient id="paint81_linear_15_308" x1="73.5218" y1="77.0746" x2="77.7645" y2="81.3172" gradientUnits="userSpaceOnUse">
<stop offset="0.536458" stop-color="#FF9B50"/>
<stop offset="1" stop-color="#FFE1C7"/>
</linearGradient>
<linearGradient id="paint82_linear_15_308" x1="75.2071" y1="13.1959" x2="75.2071" y2="23.1959" gradientUnits="userSpaceOnUse">
<stop offset="0.520833" stop-color="#FC9842"/>
<stop offset="1" stop-color="#FFE1C7"/>
</linearGradient>
<linearGradient id="paint83_linear_15_308" x1="92.1777" y1="30.1665" x2="92.1777" y2="40.1665" gradientUnits="userSpaceOnUse">
<stop offset="0.520833" stop-color="#FC9842"/>
<stop offset="1" stop-color="#FFE1C7"/>
</linearGradient>
<linearGradient id="paint84_linear_15_308" x1="99.7487" y1="37.2375" x2="99.7487" y2="47.2375" gradientUnits="userSpaceOnUse">
<stop offset="0.520833" stop-color="#FC9842"/>
<stop offset="1" stop-color="#FFE1C7"/>
</linearGradient>
<linearGradient id="paint85_linear_15_308" x1="116.012" y1="20.9741" x2="116.012" y2="30.9741" gradientUnits="userSpaceOnUse">
<stop offset="0.520833" stop-color="#FC9842"/>
<stop offset="1" stop-color="#FFE1C7"/>
</linearGradient>
<linearGradient id="paint86_linear_15_308" x1="129.654" y1="67.6432" x2="129.654" y2="77.6432" gradientUnits="userSpaceOnUse">
<stop offset="0.520833" stop-color="#FC9842"/>
<stop offset="1" stop-color="#FFE1C7"/>
</linearGradient>
<linearGradient id="paint87_linear_15_308" x1="146.625" y1="84.6137" x2="146.625" y2="94.6137" gradientUnits="userSpaceOnUse">
<stop offset="0.520833" stop-color="#FC9842"/>
<stop offset="1" stop-color="#FFE1C7"/>
</linearGradient>
<linearGradient id="paint88_linear_15_308" x1="154.196" y1="91.6848" x2="154.196" y2="101.685" gradientUnits="userSpaceOnUse">
<stop offset="0.520833" stop-color="#FC9842"/>
<stop offset="1" stop-color="#FFE1C7"/>
</linearGradient>
<linearGradient id="paint89_linear_15_308" x1="100.113" y1="42.1873" x2="100.113" y2="51.1873" gradientUnits="userSpaceOnUse">
<stop offset="0.520833" stop-color="#FC9842"/>
<stop offset="1" stop-color="#FFE1C7"/>
</linearGradient>
<linearGradient id="paint90_linear_15_308" x1="127.69" y1="14.6102" x2="127.69" y2="23.6102" gradientUnits="userSpaceOnUse">
<stop offset="0.520833" stop-color="#FC9842"/>
<stop offset="1" stop-color="#FFE1C7"/>
</linearGradient>
<linearGradient id="paint91_linear_15_308" x1="169.267" y1="12.4888" x2="169.267" y2="21.4888" gradientUnits="userSpaceOnUse">
<stop offset="0.520833" stop-color="#FC9842"/>
<stop offset="1" stop-color="#FFE1C7"/>
</linearGradient>
<linearGradient id="paint92_linear_15_308" x1="128.74" y1="45.0157" x2="128.74" y2="54.0157" gradientUnits="userSpaceOnUse">
<stop offset="0.520833" stop-color="#FC9842"/>
<stop offset="1" stop-color="#FFE1C7"/>
</linearGradient>
<linearGradient id="paint93_linear_15_308" x1="120.997" y1="61.9863" x2="120.997" y2="70.9863" gradientUnits="userSpaceOnUse">
<stop offset="0.520833" stop-color="#FC9842"/>
<stop offset="1" stop-color="#FFE1C7"/>
</linearGradient>
<linearGradient id="paint94_linear_15_308" x1="126.619" y1="10.3675" x2="126.619" y2="19.3675" gradientUnits="userSpaceOnUse">
<stop offset="0.520833" stop-color="#FC9842"/>
<stop offset="1" stop-color="#FFE1C7"/>
</linearGradient>
<linearGradient id="paint95_linear_15_308" x1="147.125" y1="9.6604" x2="147.125" y2="18.6604" gradientUnits="userSpaceOnUse">
<stop offset="0.520833" stop-color="#FC9842"/>
<stop offset="1" stop-color="#FFE1C7"/>
</linearGradient>
<linearGradient id="paint96_linear_15_308" x1="189.773" y1="62.6934" x2="189.773" y2="71.6934" gradientUnits="userSpaceOnUse">
<stop offset="0.520833" stop-color="#FC9842"/>
<stop offset="1" stop-color="#FFE1C7"/>
</linearGradient>
<linearGradient id="paint97_linear_15_308" x1="188.122" y1="49.2584" x2="188.122" y2="58.2584" gradientUnits="userSpaceOnUse">
<stop offset="0.520833" stop-color="#FC9842"/>
<stop offset="1" stop-color="#FFE1C7"/>
</linearGradient>
<linearGradient id="paint98_linear_15_308" x1="164.081" y1="25.2167" x2="164.081" y2="34.2167" gradientUnits="userSpaceOnUse">
<stop offset="0.520833" stop-color="#FC9842"/>
<stop offset="1" stop-color="#FFE1C7"/>
</linearGradient>
<linearGradient id="paint99_linear_15_308" x1="170.459" y1="75.4213" x2="170.459" y2="85.4213" gradientUnits="userSpaceOnUse">
<stop offset="0.520833" stop-color="#FC9842"/>
<stop offset="1" stop-color="#FFE1C7"/>
</linearGradient>
<linearGradient id="paint100_linear_15_308" x1="113.154" y1="20.0096" x2="113.154" y2="29.0096" gradientUnits="userSpaceOnUse">
<stop offset="0.520833" stop-color="#FC9842"/>
<stop offset="1" stop-color="#FFE1C7"/>
</linearGradient>
<linearGradient id="paint101_linear_15_308" x1="164.066" y1="22.8381" x2="164.066" y2="31.8381" gradientUnits="userSpaceOnUse">
<stop offset="0.520833" stop-color="#FC9842"/>
<stop offset="1" stop-color="#FFE1C7"/>
</linearGradient>
<linearGradient id="paint102_linear_15_308" x1="184.809" y1="12.4888" x2="184.809" y2="22.4888" gradientUnits="userSpaceOnUse">
<stop offset="0.520833" stop-color="#FC9842"/>
<stop offset="1" stop-color="#FFE1C7"/>
</linearGradient>
<linearGradient id="paint103_linear_15_308" x1="201.779" y1="29.4594" x2="201.779" y2="39.4594" gradientUnits="userSpaceOnUse">
<stop offset="0.520833" stop-color="#FC9842"/>
<stop offset="1" stop-color="#FFE1C7"/>
</linearGradient>
<linearGradient id="paint104_linear_15_308" x1="209.35" y1="36.5305" x2="209.35" y2="46.5305" gradientUnits="userSpaceOnUse">
<stop offset="0.520833" stop-color="#FC9842"/>
<stop offset="1" stop-color="#FFE1C7"/>
</linearGradient>
<linearGradient id="paint105_linear_15_308" x1="225.614" y1="20.267" x2="225.614" y2="30.267" gradientUnits="userSpaceOnUse">
<stop offset="0.520833" stop-color="#FC9842"/>
<stop offset="1" stop-color="#FFE1C7"/>
</linearGradient>
<linearGradient id="paint106_linear_15_308" x1="134.368" y1="66.229" x2="138.61" y2="70.4716" gradientUnits="userSpaceOnUse">
<stop offset="0.520833" stop-color="#FC9842"/>
<stop offset="1" stop-color="#FFE1C7"/>
</linearGradient>
<linearGradient id="paint107_linear_15_308" x1="79.9203" y1="11.7817" x2="84.163" y2="16.0243" gradientUnits="userSpaceOnUse">
<stop offset="0.520833" stop-color="#FC9842"/>
<stop offset="1" stop-color="#FFE1C7"/>
</linearGradient>
<linearGradient id="paint108_linear_15_308" x1="189.522" y1="11.0746" x2="193.765" y2="15.3172" gradientUnits="userSpaceOnUse">
<stop offset="0.520833" stop-color="#FC9842"/>
<stop offset="1" stop-color="#FFE1C7"/>
</linearGradient>
</defs>
</svg>
