<svg width="159" height="401" viewBox="0 0 159 401" fill="none" xmlns="http://www.w3.org/2000/svg">
<rect x="156.978" y="164.489" width="33" height="10" rx="5" transform="rotate(135 156.978 164.489)" fill="url(#paint0_linear_15_309)" fill-opacity="0.5"/>
<rect x="140.007" y="147.518" width="33" height="10" rx="5" transform="rotate(135 140.007 147.518)" fill="url(#paint1_linear_15_309)" fill-opacity="0.5"/>
<rect x="132.936" y="140.447" width="34" height="10" rx="5" transform="rotate(45 132.936 140.447)" fill="url(#paint2_linear_15_309)" fill-opacity="0.5"/>
<rect x="116.673" y="156.711" width="34" height="10" rx="5" transform="rotate(45 116.673 156.711)" fill="url(#paint3_linear_15_309)" fill-opacity="0.5"/>
<rect x="102.53" y="110.042" width="33" height="10" rx="5" transform="rotate(135 102.53 110.042)" fill="url(#paint4_linear_15_309)" fill-opacity="0.5"/>
<rect x="85.5599" y="93.0711" width="33" height="10" rx="5" transform="rotate(135 85.5599 93.0711)" fill="url(#paint5_linear_15_309)" fill-opacity="0.5"/>
<rect x="78.4889" y="86" width="34" height="10" rx="5" transform="rotate(45 78.4889 86)" fill="url(#paint6_linear_15_309)" fill-opacity="0.5"/>
<rect x="126.572" y="135.497" width="22" height="9" rx="4.5" transform="rotate(135 126.572 135.497)" fill="url(#paint7_linear_15_309)" fill-opacity="0.5"/>
<rect x="98.995" y="163.075" width="22" height="9" rx="4.5" transform="rotate(135 98.995 163.075)" fill="url(#paint8_linear_15_309)" fill-opacity="0.5"/>
<rect x="95.4594" y="227.421" width="22" height="9" rx="4.5" transform="rotate(135 95.4594 227.421)" fill="url(#paint9_linear_15_309)" fill-opacity="0.5"/>
<rect x="71.4178" y="165.196" width="50" height="9" rx="4.5" transform="rotate(135 71.4178 165.196)" fill="url(#paint10_linear_15_309)" fill-opacity="0.5"/>
<rect x="103.945" y="132.669" width="34" height="9" rx="4.5" transform="rotate(135 103.945 132.669)" fill="url(#paint11_linear_15_309)" fill-opacity="0.5"/>
<rect x="108.187" y="115.698" width="27" height="9" rx="4.5" transform="rotate(45 108.187 115.698)" fill="url(#paint12_linear_15_309)" fill-opacity="0.5"/>
<rect x="106.066" y="167.317" width="34" height="9" rx="4.5" transform="rotate(45 106.066 167.317)" fill="url(#paint13_linear_15_309)" fill-opacity="0.5"/>
<rect x="85.5599" y="168.024" width="34" height="9" rx="4.5" transform="rotate(45 85.5599 168.024)" fill="url(#paint14_linear_15_309)" fill-opacity="0.5"/>
<rect x="50.9117" y="114.991" width="50" height="9" rx="4.5" transform="rotate(45 50.9117 114.991)" fill="url(#paint15_linear_15_309)" fill-opacity="0.5"/>
<rect x="72.1249" y="178.631" width="51" height="9" rx="4.5" transform="rotate(45 72.1249 178.631)" fill="url(#paint16_linear_15_309)" fill-opacity="0.5"/>
<rect x="54.4472" y="206.208" width="44" height="9" rx="4.5" transform="rotate(45 54.4472 206.208)" fill="url(#paint17_linear_15_309)" fill-opacity="0.5"/>
<rect x="65.0538" y="195.602" width="27" height="9" rx="4.5" transform="rotate(45 65.0538 195.602)" fill="url(#paint18_linear_15_309)" fill-opacity="0.5"/>
<rect x="36.0624" y="128.426" width="17" height="9" rx="4.5" transform="rotate(45 36.0624 128.426)" fill="url(#paint19_linear_15_309)" fill-opacity="0.5"/>
<rect x="60.1041" y="152.468" width="17" height="9" rx="4.5" transform="rotate(45 60.1041 152.468)" fill="url(#paint20_linear_15_309)" fill-opacity="0.5"/>
<rect x="62.2254" y="102.263" width="34" height="10" rx="5" transform="rotate(45 62.2254 102.263)" fill="url(#paint21_linear_15_309)" fill-opacity="0.5"/>
<circle cx="102.53" cy="153.175" r="4.5" transform="rotate(135 102.53 153.175)" fill="url(#paint22_linear_15_309)" fill-opacity="0.5"/>
<circle cx="51.6188" cy="150.347" r="4.5" transform="rotate(135 51.6188 150.347)" fill="url(#paint23_linear_15_309)" fill-opacity="0.5"/>
<circle cx="57.2757" cy="192.773" r="4.5" transform="rotate(135 57.2757 192.773)" fill="url(#paint24_linear_15_309)" fill-opacity="0.5"/>
<circle cx="113.137" cy="201.965" r="4.5" transform="rotate(135 113.137 201.965)" fill="url(#paint25_linear_15_309)" fill-opacity="0.5"/>
<circle cx="113.137" cy="201.965" r="4.5" transform="rotate(135 113.137 201.965)" fill="url(#paint26_linear_15_309)" fill-opacity="0.5"/>
<rect x="47.3762" y="165.196" width="33" height="10" rx="5" transform="rotate(135 47.3762 165.196)" fill="url(#paint27_linear_15_309)" fill-opacity="0.5"/>
<rect x="30.4056" y="148.225" width="33" height="10" rx="5" transform="rotate(135 30.4056 148.225)" fill="url(#paint28_linear_15_309)" fill-opacity="0.5"/>
<rect x="23.3345" y="141.154" width="34" height="10" rx="5" transform="rotate(45 23.3345 141.154)" fill="url(#paint29_linear_15_309)" fill-opacity="0.5"/>
<rect x="7.07108" y="157.418" width="34" height="10" rx="5" transform="rotate(45 7.07108 157.418)" fill="url(#paint30_linear_15_309)" fill-opacity="0.5"/>
<path d="M81.3173 111.456L76.2982 110.111L79.9724 106.437L81.3173 111.456Z" fill="url(#paint31_linear_15_309)" fill-opacity="0.5"/>
<path d="M135.765 165.903L130.745 164.558L134.42 160.884L135.765 165.903Z" fill="url(#paint32_linear_15_309)" fill-opacity="0.5"/>
<path d="M26.163 166.61L21.1439 165.265L24.8181 161.591L26.163 166.61Z" fill="url(#paint33_linear_15_309)" fill-opacity="0.5"/>
<rect x="186.53" y="24.0416" width="33" height="10" rx="5" transform="rotate(135 186.53 24.0416)" fill="url(#paint34_linear_15_309)" fill-opacity="0.5"/>
<rect x="169.56" y="7.07108" width="33" height="10" rx="5" transform="rotate(135 169.56 7.07108)" fill="url(#paint35_linear_15_309)" fill-opacity="0.5"/>
<rect x="162.489" y="1.52588e-05" width="34" height="10" rx="5" transform="rotate(45 162.489 1.52588e-05)" fill="url(#paint36_linear_15_309)" fill-opacity="0.5"/>
<rect x="179.459" y="141.421" width="22" height="9" rx="4.5" transform="rotate(135 179.459 141.421)" fill="url(#paint37_linear_15_309)" fill-opacity="0.5"/>
<rect x="155.418" y="79.196" width="50" height="9" rx="4.5" transform="rotate(135 155.418 79.196)" fill="url(#paint38_linear_15_309)" fill-opacity="0.5"/>
<rect x="187.945" y="46.6691" width="34" height="9" rx="4.5" transform="rotate(135 187.945 46.6691)" fill="url(#paint39_linear_15_309)" fill-opacity="0.5"/>
<rect x="134.912" y="28.9914" width="50" height="9" rx="4.5" transform="rotate(45 134.912 28.9914)" fill="url(#paint40_linear_15_309)" fill-opacity="0.5"/>
<rect x="156.125" y="92.631" width="51" height="9" rx="4.5" transform="rotate(45 156.125 92.631)" fill="url(#paint41_linear_15_309)" fill-opacity="0.5"/>
<rect x="138.447" y="120.208" width="44" height="9" rx="4.5" transform="rotate(45 138.447 120.208)" fill="url(#paint42_linear_15_309)" fill-opacity="0.5"/>
<rect x="149.054" y="109.602" width="27" height="9" rx="4.5" transform="rotate(45 149.054 109.602)" fill="url(#paint43_linear_15_309)" fill-opacity="0.5"/>
<rect x="120.062" y="42.4264" width="17" height="9" rx="4.5" transform="rotate(45 120.062 42.4264)" fill="url(#paint44_linear_15_309)" fill-opacity="0.5"/>
<rect x="144.104" y="66.468" width="17" height="9" rx="4.5" transform="rotate(45 144.104 66.468)" fill="url(#paint45_linear_15_309)" fill-opacity="0.5"/>
<rect x="146.225" y="16.2635" width="34" height="10" rx="5" transform="rotate(45 146.225 16.2635)" fill="url(#paint46_linear_15_309)" fill-opacity="0.5"/>
<circle cx="135.619" cy="64.3467" r="4.5" transform="rotate(135 135.619 64.3467)" fill="url(#paint47_linear_15_309)" fill-opacity="0.5"/>
<circle cx="141.276" cy="106.773" r="4.5" transform="rotate(135 141.276 106.773)" fill="url(#paint48_linear_15_309)" fill-opacity="0.5"/>
<rect x="131.376" y="79.196" width="33" height="10" rx="5" transform="rotate(135 131.376 79.196)" fill="url(#paint49_linear_15_309)" fill-opacity="0.5"/>
<rect x="114.406" y="62.2254" width="33" height="10" rx="5" transform="rotate(135 114.406 62.2254)" fill="url(#paint50_linear_15_309)" fill-opacity="0.5"/>
<rect x="107.335" y="55.1543" width="34" height="10" rx="5" transform="rotate(45 107.335 55.1543)" fill="url(#paint51_linear_15_309)" fill-opacity="0.5"/>
<rect x="91.0711" y="71.4178" width="34" height="10" rx="5" transform="rotate(45 91.0711 71.4178)" fill="url(#paint52_linear_15_309)" fill-opacity="0.5"/>
<path d="M110.163 80.6102L105.144 79.2653L108.818 75.5911L110.163 80.6102Z" fill="url(#paint53_linear_15_309)" fill-opacity="0.5"/>
<rect x="186.53" y="199.042" width="33" height="10" rx="5" transform="rotate(135 186.53 199.042)" fill="url(#paint54_linear_15_309)" fill-opacity="0.5"/>
<rect x="169.56" y="182.071" width="33" height="10" rx="5" transform="rotate(135 169.56 182.071)" fill="url(#paint55_linear_15_309)" fill-opacity="0.5"/>
<rect x="162.489" y="175" width="34" height="10" rx="5" transform="rotate(45 162.489 175)" fill="url(#paint56_linear_15_309)" fill-opacity="0.5"/>
<rect x="179.459" y="316.421" width="22" height="9" rx="4.5" transform="rotate(135 179.459 316.421)" fill="url(#paint57_linear_15_309)" fill-opacity="0.5"/>
<rect x="155.418" y="254.196" width="50" height="9" rx="4.5" transform="rotate(135 155.418 254.196)" fill="url(#paint58_linear_15_309)" fill-opacity="0.5"/>
<rect x="187.945" y="221.669" width="34" height="9" rx="4.5" transform="rotate(135 187.945 221.669)" fill="url(#paint59_linear_15_309)" fill-opacity="0.5"/>
<rect x="134.912" y="203.991" width="50" height="9" rx="4.5" transform="rotate(45 134.912 203.991)" fill="url(#paint60_linear_15_309)" fill-opacity="0.5"/>
<rect x="156.125" y="267.631" width="51" height="9" rx="4.5" transform="rotate(45 156.125 267.631)" fill="url(#paint61_linear_15_309)" fill-opacity="0.5"/>
<rect x="138.447" y="295.208" width="44" height="9" rx="4.5" transform="rotate(45 138.447 295.208)" fill="url(#paint62_linear_15_309)" fill-opacity="0.5"/>
<rect x="149.054" y="284.601" width="27" height="9" rx="4.5" transform="rotate(45 149.054 284.601)" fill="url(#paint63_linear_15_309)" fill-opacity="0.5"/>
<rect x="120.062" y="217.426" width="17" height="9" rx="4.5" transform="rotate(45 120.062 217.426)" fill="url(#paint64_linear_15_309)" fill-opacity="0.5"/>
<rect x="144.104" y="241.468" width="17" height="9" rx="4.5" transform="rotate(45 144.104 241.468)" fill="url(#paint65_linear_15_309)" fill-opacity="0.5"/>
<rect x="146.225" y="191.263" width="34" height="10" rx="5" transform="rotate(45 146.225 191.263)" fill="url(#paint66_linear_15_309)" fill-opacity="0.5"/>
<circle cx="135.619" cy="239.347" r="4.5" transform="rotate(135 135.619 239.347)" fill="url(#paint67_linear_15_309)" fill-opacity="0.5"/>
<circle cx="141.276" cy="281.773" r="4.5" transform="rotate(135 141.276 281.773)" fill="url(#paint68_linear_15_309)" fill-opacity="0.5"/>
<rect x="131.376" y="254.196" width="33" height="10" rx="5" transform="rotate(135 131.376 254.196)" fill="url(#paint69_linear_15_309)" fill-opacity="0.5"/>
<rect x="114.406" y="237.225" width="33" height="10" rx="5" transform="rotate(135 114.406 237.225)" fill="url(#paint70_linear_15_309)" fill-opacity="0.5"/>
<rect x="107.335" y="230.154" width="34" height="10" rx="5" transform="rotate(45 107.335 230.154)" fill="url(#paint71_linear_15_309)" fill-opacity="0.5"/>
<rect x="91.0711" y="246.418" width="34" height="10" rx="5" transform="rotate(45 91.0711 246.418)" fill="url(#paint72_linear_15_309)" fill-opacity="0.5"/>
<path d="M110.163 255.61L105.144 254.265L108.818 250.591L110.163 255.61Z" fill="url(#paint73_linear_15_309)" fill-opacity="0.5"/>
<rect x="67.7071" y="400.196" width="33" height="10" rx="5" transform="rotate(-45 67.7071 400.196)" fill="url(#paint74_linear_15_309)" fill-opacity="0.5"/>
<rect x="84.6777" y="417.167" width="33" height="10" rx="5" transform="rotate(-45 84.6777 417.167)" fill="url(#paint75_linear_15_309)" fill-opacity="0.5"/>
<rect x="91.7487" y="424.238" width="34" height="10" rx="5" transform="rotate(-135 91.7487 424.238)" fill="url(#paint76_linear_15_309)" fill-opacity="0.5"/>
<rect x="108.012" y="407.974" width="34" height="10" rx="5" transform="rotate(-135 108.012 407.974)" fill="url(#paint77_linear_15_309)" fill-opacity="0.5"/>
<rect x="125.69" y="401.61" width="22" height="9" rx="4.5" transform="rotate(-45 125.69 401.61)" fill="url(#paint78_linear_15_309)" fill-opacity="0.5"/>
<rect x="129.225" y="337.263" width="22" height="9" rx="4.5" transform="rotate(-45 129.225 337.263)" fill="url(#paint79_linear_15_309)" fill-opacity="0.5"/>
<rect x="153.267" y="399.489" width="50" height="9" rx="4.5" transform="rotate(-45 153.267 399.489)" fill="url(#paint80_linear_15_309)" fill-opacity="0.5"/>
<rect x="118.619" y="397.368" width="34" height="9" rx="4.5" transform="rotate(-135 118.619 397.368)" fill="url(#paint81_linear_15_309)" fill-opacity="0.5"/>
<rect x="139.125" y="396.66" width="34" height="9" rx="4.5" transform="rotate(-135 139.125 396.66)" fill="url(#paint82_linear_15_309)" fill-opacity="0.5"/>
<rect x="152.56" y="386.054" width="51" height="9" rx="4.5" transform="rotate(-135 152.56 386.054)" fill="url(#paint83_linear_15_309)" fill-opacity="0.5"/>
<rect x="170.238" y="358.477" width="44" height="9" rx="4.5" transform="rotate(-135 170.238 358.477)" fill="url(#paint84_linear_15_309)" fill-opacity="0.5"/>
<rect x="159.631" y="369.083" width="27" height="9" rx="4.5" transform="rotate(-135 159.631 369.083)" fill="url(#paint85_linear_15_309)" fill-opacity="0.5"/>
<rect x="164.581" y="412.217" width="17" height="9" rx="4.5" transform="rotate(-135 164.581 412.217)" fill="url(#paint86_linear_15_309)" fill-opacity="0.5"/>
<circle cx="111.548" cy="362.719" r="4.5" transform="rotate(-45 111.548 362.719)" fill="url(#paint87_linear_15_309)" fill-opacity="0.5"/>
<circle cx="111.548" cy="362.719" r="4.5" transform="rotate(-45 111.548 362.719)" fill="url(#paint88_linear_15_309)" fill-opacity="0.5"/>
<path d="M88.9203 398.782L93.9394 400.127L90.2652 403.801L88.9203 398.782Z" fill="url(#paint89_linear_15_309)" fill-opacity="0.5"/>
<defs>
<linearGradient id="paint0_linear_15_309" x1="173.478" y1="164.489" x2="173.478" y2="174.489" gradientUnits="userSpaceOnUse">
<stop stop-color="#FE5F5F"/>
<stop offset="1" stop-color="#FC9842"/>
</linearGradient>
<linearGradient id="paint1_linear_15_309" x1="156.507" y1="147.518" x2="156.507" y2="157.518" gradientUnits="userSpaceOnUse">
<stop stop-color="#FE5F5F"/>
<stop offset="1" stop-color="#FC9842"/>
</linearGradient>
<linearGradient id="paint2_linear_15_309" x1="149.936" y1="140.447" x2="149.936" y2="150.447" gradientUnits="userSpaceOnUse">
<stop stop-color="#FE5F5F"/>
<stop offset="1" stop-color="#FC9842"/>
</linearGradient>
<linearGradient id="paint3_linear_15_309" x1="133.673" y1="156.711" x2="133.673" y2="166.711" gradientUnits="userSpaceOnUse">
<stop stop-color="#FE5F5F"/>
<stop offset="1" stop-color="#FC9842"/>
</linearGradient>
<linearGradient id="paint4_linear_15_309" x1="119.03" y1="110.042" x2="119.03" y2="120.042" gradientUnits="userSpaceOnUse">
<stop stop-color="#FE5F5F"/>
<stop offset="1" stop-color="#FC9842"/>
</linearGradient>
<linearGradient id="paint5_linear_15_309" x1="102.06" y1="93.0711" x2="102.06" y2="103.071" gradientUnits="userSpaceOnUse">
<stop stop-color="#FE5F5F"/>
<stop offset="1" stop-color="#FC9842"/>
</linearGradient>
<linearGradient id="paint6_linear_15_309" x1="95.4889" y1="86" x2="95.4889" y2="96" gradientUnits="userSpaceOnUse">
<stop stop-color="#FE5F5F"/>
<stop offset="1" stop-color="#FC9842"/>
</linearGradient>
<linearGradient id="paint7_linear_15_309" x1="137.572" y1="135.497" x2="137.572" y2="144.497" gradientUnits="userSpaceOnUse">
<stop stop-color="#FE5F5F"/>
<stop offset="1" stop-color="#FC9842"/>
</linearGradient>
<linearGradient id="paint8_linear_15_309" x1="109.995" y1="163.075" x2="109.995" y2="172.075" gradientUnits="userSpaceOnUse">
<stop stop-color="#FE5F5F"/>
<stop offset="1" stop-color="#FC9842"/>
</linearGradient>
<linearGradient id="paint9_linear_15_309" x1="106.459" y1="227.421" x2="106.459" y2="236.421" gradientUnits="userSpaceOnUse">
<stop stop-color="#FE5F5F"/>
<stop offset="1" stop-color="#FC9842"/>
</linearGradient>
<linearGradient id="paint10_linear_15_309" x1="96.4178" y1="165.196" x2="96.4178" y2="174.196" gradientUnits="userSpaceOnUse">
<stop stop-color="#FE5F5F"/>
<stop offset="1" stop-color="#FC9842"/>
</linearGradient>
<linearGradient id="paint11_linear_15_309" x1="120.945" y1="132.669" x2="120.945" y2="141.669" gradientUnits="userSpaceOnUse">
<stop stop-color="#FE5F5F"/>
<stop offset="1" stop-color="#FC9842"/>
</linearGradient>
<linearGradient id="paint12_linear_15_309" x1="121.687" y1="115.698" x2="121.687" y2="124.698" gradientUnits="userSpaceOnUse">
<stop stop-color="#FE5F5F"/>
<stop offset="1" stop-color="#FC9842"/>
</linearGradient>
<linearGradient id="paint13_linear_15_309" x1="123.066" y1="167.317" x2="123.066" y2="176.317" gradientUnits="userSpaceOnUse">
<stop stop-color="#FE5F5F"/>
<stop offset="1" stop-color="#FC9842"/>
</linearGradient>
<linearGradient id="paint14_linear_15_309" x1="102.56" y1="168.024" x2="102.56" y2="177.024" gradientUnits="userSpaceOnUse">
<stop stop-color="#FE5F5F"/>
<stop offset="1" stop-color="#FC9842"/>
</linearGradient>
<linearGradient id="paint15_linear_15_309" x1="75.9117" y1="114.991" x2="75.9117" y2="123.991" gradientUnits="userSpaceOnUse">
<stop stop-color="#FE5F5F"/>
<stop offset="1" stop-color="#FC9842"/>
</linearGradient>
<linearGradient id="paint16_linear_15_309" x1="97.6249" y1="178.631" x2="97.6249" y2="187.631" gradientUnits="userSpaceOnUse">
<stop stop-color="#FE5F5F"/>
<stop offset="1" stop-color="#FC9842"/>
</linearGradient>
<linearGradient id="paint17_linear_15_309" x1="76.4472" y1="206.208" x2="76.4472" y2="215.208" gradientUnits="userSpaceOnUse">
<stop stop-color="#FE5F5F"/>
<stop offset="1" stop-color="#FC9842"/>
</linearGradient>
<linearGradient id="paint18_linear_15_309" x1="78.5538" y1="195.602" x2="78.5538" y2="204.602" gradientUnits="userSpaceOnUse">
<stop stop-color="#FE5F5F"/>
<stop offset="1" stop-color="#FC9842"/>
</linearGradient>
<linearGradient id="paint19_linear_15_309" x1="44.5624" y1="128.426" x2="44.5624" y2="137.426" gradientUnits="userSpaceOnUse">
<stop stop-color="#FE5F5F"/>
<stop offset="1" stop-color="#FC9842"/>
</linearGradient>
<linearGradient id="paint20_linear_15_309" x1="68.6041" y1="152.468" x2="68.6041" y2="161.468" gradientUnits="userSpaceOnUse">
<stop stop-color="#FE5F5F"/>
<stop offset="1" stop-color="#FC9842"/>
</linearGradient>
<linearGradient id="paint21_linear_15_309" x1="79.2254" y1="102.263" x2="79.2254" y2="112.263" gradientUnits="userSpaceOnUse">
<stop stop-color="#FE5F5F"/>
<stop offset="1" stop-color="#FC9842"/>
</linearGradient>
<linearGradient id="paint22_linear_15_309" x1="102.53" y1="148.675" x2="102.53" y2="157.675" gradientUnits="userSpaceOnUse">
<stop stop-color="#FE5F5F"/>
<stop offset="1" stop-color="#FC9842"/>
</linearGradient>
<linearGradient id="paint23_linear_15_309" x1="51.6188" y1="145.847" x2="51.6188" y2="154.847" gradientUnits="userSpaceOnUse">
<stop stop-color="#FE5F5F"/>
<stop offset="1" stop-color="#FC9842"/>
</linearGradient>
<linearGradient id="paint24_linear_15_309" x1="57.2757" y1="188.273" x2="57.2757" y2="197.273" gradientUnits="userSpaceOnUse">
<stop stop-color="#FE5F5F"/>
<stop offset="1" stop-color="#FC9842"/>
</linearGradient>
<linearGradient id="paint25_linear_15_309" x1="113.137" y1="197.465" x2="113.137" y2="206.465" gradientUnits="userSpaceOnUse">
<stop stop-color="#FE5F5F"/>
<stop offset="1" stop-color="#FC9842"/>
</linearGradient>
<linearGradient id="paint26_linear_15_309" x1="113.137" y1="197.465" x2="113.137" y2="206.465" gradientUnits="userSpaceOnUse">
<stop stop-color="#FE5F5F"/>
<stop offset="1" stop-color="#FC9842"/>
</linearGradient>
<linearGradient id="paint27_linear_15_309" x1="63.8762" y1="165.196" x2="63.8762" y2="175.196" gradientUnits="userSpaceOnUse">
<stop stop-color="#FE5F5F"/>
<stop offset="1" stop-color="#FC9842"/>
</linearGradient>
<linearGradient id="paint28_linear_15_309" x1="46.9056" y1="148.225" x2="46.9056" y2="158.225" gradientUnits="userSpaceOnUse">
<stop stop-color="#FE5F5F"/>
<stop offset="1" stop-color="#FC9842"/>
</linearGradient>
<linearGradient id="paint29_linear_15_309" x1="40.3345" y1="141.154" x2="40.3345" y2="151.154" gradientUnits="userSpaceOnUse">
<stop stop-color="#FE5F5F"/>
<stop offset="1" stop-color="#FC9842"/>
</linearGradient>
<linearGradient id="paint30_linear_15_309" x1="24.0711" y1="157.418" x2="24.0711" y2="167.418" gradientUnits="userSpaceOnUse">
<stop stop-color="#FE5F5F"/>
<stop offset="1" stop-color="#FC9842"/>
</linearGradient>
<linearGradient id="paint31_linear_15_309" x1="81.3173" y1="111.456" x2="77.0746" y2="107.213" gradientUnits="userSpaceOnUse">
<stop stop-color="#FE5F5F"/>
<stop offset="1" stop-color="#FC9842"/>
</linearGradient>
<linearGradient id="paint32_linear_15_309" x1="135.765" y1="165.903" x2="131.522" y2="161.66" gradientUnits="userSpaceOnUse">
<stop stop-color="#FE5F5F"/>
<stop offset="1" stop-color="#FC9842"/>
</linearGradient>
<linearGradient id="paint33_linear_15_309" x1="26.163" y1="166.61" x2="21.9203" y2="162.368" gradientUnits="userSpaceOnUse">
<stop stop-color="#FE5F5F"/>
<stop offset="1" stop-color="#FC9842"/>
</linearGradient>
<linearGradient id="paint34_linear_15_309" x1="203.03" y1="24.0416" x2="203.03" y2="34.0416" gradientUnits="userSpaceOnUse">
<stop stop-color="#FE5F5F"/>
<stop offset="1" stop-color="#FC9842"/>
</linearGradient>
<linearGradient id="paint35_linear_15_309" x1="186.06" y1="7.07108" x2="186.06" y2="17.0711" gradientUnits="userSpaceOnUse">
<stop stop-color="#FE5F5F"/>
<stop offset="1" stop-color="#FC9842"/>
</linearGradient>
<linearGradient id="paint36_linear_15_309" x1="179.489" y1="1.52588e-05" x2="179.489" y2="10" gradientUnits="userSpaceOnUse">
<stop stop-color="#FE5F5F"/>
<stop offset="1" stop-color="#FC9842"/>
</linearGradient>
<linearGradient id="paint37_linear_15_309" x1="190.459" y1="141.421" x2="190.459" y2="150.421" gradientUnits="userSpaceOnUse">
<stop stop-color="#FE5F5F"/>
<stop offset="1" stop-color="#FC9842"/>
</linearGradient>
<linearGradient id="paint38_linear_15_309" x1="180.418" y1="79.196" x2="180.418" y2="88.196" gradientUnits="userSpaceOnUse">
<stop stop-color="#FE5F5F"/>
<stop offset="1" stop-color="#FC9842"/>
</linearGradient>
<linearGradient id="paint39_linear_15_309" x1="204.945" y1="46.6691" x2="204.945" y2="55.6691" gradientUnits="userSpaceOnUse">
<stop stop-color="#FE5F5F"/>
<stop offset="1" stop-color="#FC9842"/>
</linearGradient>
<linearGradient id="paint40_linear_15_309" x1="159.912" y1="28.9914" x2="159.912" y2="37.9914" gradientUnits="userSpaceOnUse">
<stop stop-color="#FE5F5F"/>
<stop offset="1" stop-color="#FC9842"/>
</linearGradient>
<linearGradient id="paint41_linear_15_309" x1="181.625" y1="92.631" x2="181.625" y2="101.631" gradientUnits="userSpaceOnUse">
<stop stop-color="#FE5F5F"/>
<stop offset="1" stop-color="#FC9842"/>
</linearGradient>
<linearGradient id="paint42_linear_15_309" x1="160.447" y1="120.208" x2="160.447" y2="129.208" gradientUnits="userSpaceOnUse">
<stop stop-color="#FE5F5F"/>
<stop offset="1" stop-color="#FC9842"/>
</linearGradient>
<linearGradient id="paint43_linear_15_309" x1="162.554" y1="109.602" x2="162.554" y2="118.602" gradientUnits="userSpaceOnUse">
<stop stop-color="#FE5F5F"/>
<stop offset="1" stop-color="#FC9842"/>
</linearGradient>
<linearGradient id="paint44_linear_15_309" x1="128.562" y1="42.4264" x2="128.562" y2="51.4264" gradientUnits="userSpaceOnUse">
<stop stop-color="#FE5F5F"/>
<stop offset="1" stop-color="#FC9842"/>
</linearGradient>
<linearGradient id="paint45_linear_15_309" x1="152.604" y1="66.468" x2="152.604" y2="75.468" gradientUnits="userSpaceOnUse">
<stop stop-color="#FE5F5F"/>
<stop offset="1" stop-color="#FC9842"/>
</linearGradient>
<linearGradient id="paint46_linear_15_309" x1="163.225" y1="16.2635" x2="163.225" y2="26.2635" gradientUnits="userSpaceOnUse">
<stop stop-color="#FE5F5F"/>
<stop offset="1" stop-color="#FC9842"/>
</linearGradient>
<linearGradient id="paint47_linear_15_309" x1="135.619" y1="59.8467" x2="135.619" y2="68.8467" gradientUnits="userSpaceOnUse">
<stop stop-color="#FE5F5F"/>
<stop offset="1" stop-color="#FC9842"/>
</linearGradient>
<linearGradient id="paint48_linear_15_309" x1="141.276" y1="102.273" x2="141.276" y2="111.273" gradientUnits="userSpaceOnUse">
<stop stop-color="#FE5F5F"/>
<stop offset="1" stop-color="#FC9842"/>
</linearGradient>
<linearGradient id="paint49_linear_15_309" x1="147.876" y1="79.196" x2="147.876" y2="89.196" gradientUnits="userSpaceOnUse">
<stop stop-color="#FE5F5F"/>
<stop offset="1" stop-color="#FC9842"/>
</linearGradient>
<linearGradient id="paint50_linear_15_309" x1="130.906" y1="62.2254" x2="130.906" y2="72.2254" gradientUnits="userSpaceOnUse">
<stop stop-color="#FE5F5F"/>
<stop offset="1" stop-color="#FC9842"/>
</linearGradient>
<linearGradient id="paint51_linear_15_309" x1="124.335" y1="55.1543" x2="124.335" y2="65.1543" gradientUnits="userSpaceOnUse">
<stop stop-color="#FE5F5F"/>
<stop offset="1" stop-color="#FC9842"/>
</linearGradient>
<linearGradient id="paint52_linear_15_309" x1="108.071" y1="71.4178" x2="108.071" y2="81.4178" gradientUnits="userSpaceOnUse">
<stop stop-color="#FE5F5F"/>
<stop offset="1" stop-color="#FC9842"/>
</linearGradient>
<linearGradient id="paint53_linear_15_309" x1="110.163" y1="80.6102" x2="105.92" y2="76.3675" gradientUnits="userSpaceOnUse">
<stop stop-color="#FE5F5F"/>
<stop offset="1" stop-color="#FC9842"/>
</linearGradient>
<linearGradient id="paint54_linear_15_309" x1="203.03" y1="199.042" x2="203.03" y2="209.042" gradientUnits="userSpaceOnUse">
<stop stop-color="#FE5F5F"/>
<stop offset="1" stop-color="#FC9842"/>
</linearGradient>
<linearGradient id="paint55_linear_15_309" x1="186.06" y1="182.071" x2="186.06" y2="192.071" gradientUnits="userSpaceOnUse">
<stop stop-color="#FE5F5F"/>
<stop offset="1" stop-color="#FC9842"/>
</linearGradient>
<linearGradient id="paint56_linear_15_309" x1="179.489" y1="175" x2="179.489" y2="185" gradientUnits="userSpaceOnUse">
<stop stop-color="#FE5F5F"/>
<stop offset="1" stop-color="#FC9842"/>
</linearGradient>
<linearGradient id="paint57_linear_15_309" x1="190.459" y1="316.421" x2="190.459" y2="325.421" gradientUnits="userSpaceOnUse">
<stop stop-color="#FE5F5F"/>
<stop offset="1" stop-color="#FC9842"/>
</linearGradient>
<linearGradient id="paint58_linear_15_309" x1="180.418" y1="254.196" x2="180.418" y2="263.196" gradientUnits="userSpaceOnUse">
<stop stop-color="#FE5F5F"/>
<stop offset="1" stop-color="#FC9842"/>
</linearGradient>
<linearGradient id="paint59_linear_15_309" x1="204.945" y1="221.669" x2="204.945" y2="230.669" gradientUnits="userSpaceOnUse">
<stop stop-color="#FE5F5F"/>
<stop offset="1" stop-color="#FC9842"/>
</linearGradient>
<linearGradient id="paint60_linear_15_309" x1="159.912" y1="203.991" x2="159.912" y2="212.991" gradientUnits="userSpaceOnUse">
<stop stop-color="#FE5F5F"/>
<stop offset="1" stop-color="#FC9842"/>
</linearGradient>
<linearGradient id="paint61_linear_15_309" x1="181.625" y1="267.631" x2="181.625" y2="276.631" gradientUnits="userSpaceOnUse">
<stop stop-color="#FE5F5F"/>
<stop offset="1" stop-color="#FC9842"/>
</linearGradient>
<linearGradient id="paint62_linear_15_309" x1="160.447" y1="295.208" x2="160.447" y2="304.208" gradientUnits="userSpaceOnUse">
<stop stop-color="#FE5F5F"/>
<stop offset="1" stop-color="#FC9842"/>
</linearGradient>
<linearGradient id="paint63_linear_15_309" x1="162.554" y1="284.601" x2="162.554" y2="293.601" gradientUnits="userSpaceOnUse">
<stop stop-color="#FE5F5F"/>
<stop offset="1" stop-color="#FC9842"/>
</linearGradient>
<linearGradient id="paint64_linear_15_309" x1="128.562" y1="217.426" x2="128.562" y2="226.426" gradientUnits="userSpaceOnUse">
<stop stop-color="#FE5F5F"/>
<stop offset="1" stop-color="#FC9842"/>
</linearGradient>
<linearGradient id="paint65_linear_15_309" x1="152.604" y1="241.468" x2="152.604" y2="250.468" gradientUnits="userSpaceOnUse">
<stop stop-color="#FE5F5F"/>
<stop offset="1" stop-color="#FC9842"/>
</linearGradient>
<linearGradient id="paint66_linear_15_309" x1="163.225" y1="191.263" x2="163.225" y2="201.263" gradientUnits="userSpaceOnUse">
<stop stop-color="#FE5F5F"/>
<stop offset="1" stop-color="#FC9842"/>
</linearGradient>
<linearGradient id="paint67_linear_15_309" x1="135.619" y1="234.847" x2="135.619" y2="243.847" gradientUnits="userSpaceOnUse">
<stop stop-color="#FE5F5F"/>
<stop offset="1" stop-color="#FC9842"/>
</linearGradient>
<linearGradient id="paint68_linear_15_309" x1="141.276" y1="277.273" x2="141.276" y2="286.273" gradientUnits="userSpaceOnUse">
<stop stop-color="#FE5F5F"/>
<stop offset="1" stop-color="#FC9842"/>
</linearGradient>
<linearGradient id="paint69_linear_15_309" x1="147.876" y1="254.196" x2="147.876" y2="264.196" gradientUnits="userSpaceOnUse">
<stop stop-color="#FE5F5F"/>
<stop offset="1" stop-color="#FC9842"/>
</linearGradient>
<linearGradient id="paint70_linear_15_309" x1="130.906" y1="237.225" x2="130.906" y2="247.225" gradientUnits="userSpaceOnUse">
<stop stop-color="#FE5F5F"/>
<stop offset="1" stop-color="#FC9842"/>
</linearGradient>
<linearGradient id="paint71_linear_15_309" x1="124.335" y1="230.154" x2="124.335" y2="240.154" gradientUnits="userSpaceOnUse">
<stop stop-color="#FE5F5F"/>
<stop offset="1" stop-color="#FC9842"/>
</linearGradient>
<linearGradient id="paint72_linear_15_309" x1="108.071" y1="246.418" x2="108.071" y2="256.418" gradientUnits="userSpaceOnUse">
<stop stop-color="#FE5F5F"/>
<stop offset="1" stop-color="#FC9842"/>
</linearGradient>
<linearGradient id="paint73_linear_15_309" x1="110.163" y1="255.61" x2="105.92" y2="251.367" gradientUnits="userSpaceOnUse">
<stop stop-color="#FE5F5F"/>
<stop offset="1" stop-color="#FC9842"/>
</linearGradient>
<linearGradient id="paint74_linear_15_309" x1="84.2071" y1="400.196" x2="84.2071" y2="410.196" gradientUnits="userSpaceOnUse">
<stop stop-color="#FE5F5F"/>
<stop offset="1" stop-color="#FF9B50"/>
</linearGradient>
<linearGradient id="paint75_linear_15_309" x1="101.178" y1="417.167" x2="101.178" y2="427.167" gradientUnits="userSpaceOnUse">
<stop stop-color="#FE5F5F"/>
<stop offset="1" stop-color="#FF9B50"/>
</linearGradient>
<linearGradient id="paint76_linear_15_309" x1="108.749" y1="424.238" x2="108.749" y2="434.238" gradientUnits="userSpaceOnUse">
<stop stop-color="#FE5F5F"/>
<stop offset="1" stop-color="#FF9B50"/>
</linearGradient>
<linearGradient id="paint77_linear_15_309" x1="125.012" y1="407.974" x2="125.012" y2="417.974" gradientUnits="userSpaceOnUse">
<stop stop-color="#FE5F5F"/>
<stop offset="1" stop-color="#FF9B50"/>
</linearGradient>
<linearGradient id="paint78_linear_15_309" x1="136.69" y1="401.61" x2="136.69" y2="410.61" gradientUnits="userSpaceOnUse">
<stop stop-color="#FE5F5F"/>
<stop offset="1" stop-color="#FF9B50"/>
</linearGradient>
<linearGradient id="paint79_linear_15_309" x1="140.225" y1="337.263" x2="140.225" y2="346.263" gradientUnits="userSpaceOnUse">
<stop stop-color="#FE5F5F"/>
<stop offset="1" stop-color="#FF9B50"/>
</linearGradient>
<linearGradient id="paint80_linear_15_309" x1="178.267" y1="399.489" x2="178.267" y2="408.489" gradientUnits="userSpaceOnUse">
<stop stop-color="#FE5F5F"/>
<stop offset="1" stop-color="#FF9B50"/>
</linearGradient>
<linearGradient id="paint81_linear_15_309" x1="135.619" y1="397.368" x2="135.619" y2="406.368" gradientUnits="userSpaceOnUse">
<stop stop-color="#FE5F5F"/>
<stop offset="1" stop-color="#FF9B50"/>
</linearGradient>
<linearGradient id="paint82_linear_15_309" x1="156.125" y1="396.66" x2="156.125" y2="405.66" gradientUnits="userSpaceOnUse">
<stop stop-color="#FE5F5F"/>
<stop offset="1" stop-color="#FF9B50"/>
</linearGradient>
<linearGradient id="paint83_linear_15_309" x1="178.06" y1="386.054" x2="178.06" y2="395.054" gradientUnits="userSpaceOnUse">
<stop stop-color="#FE5F5F"/>
<stop offset="1" stop-color="#FF9B50"/>
</linearGradient>
<linearGradient id="paint84_linear_15_309" x1="192.238" y1="358.477" x2="192.238" y2="367.477" gradientUnits="userSpaceOnUse">
<stop stop-color="#FE5F5F"/>
<stop offset="1" stop-color="#FF9B50"/>
</linearGradient>
<linearGradient id="paint85_linear_15_309" x1="173.131" y1="369.083" x2="173.131" y2="378.083" gradientUnits="userSpaceOnUse">
<stop stop-color="#FE5F5F"/>
<stop offset="1" stop-color="#FF9B50"/>
</linearGradient>
<linearGradient id="paint86_linear_15_309" x1="173.081" y1="412.217" x2="173.081" y2="421.217" gradientUnits="userSpaceOnUse">
<stop stop-color="#FE5F5F"/>
<stop offset="1" stop-color="#FF9B50"/>
</linearGradient>
<linearGradient id="paint87_linear_15_309" x1="111.548" y1="358.219" x2="111.548" y2="367.219" gradientUnits="userSpaceOnUse">
<stop stop-color="#FE5F5F"/>
<stop offset="1" stop-color="#FF9B50"/>
</linearGradient>
<linearGradient id="paint88_linear_15_309" x1="111.548" y1="358.219" x2="111.548" y2="367.219" gradientUnits="userSpaceOnUse">
<stop stop-color="#FE5F5F"/>
<stop offset="1" stop-color="#FF9B50"/>
</linearGradient>
<linearGradient id="paint89_linear_15_309" x1="88.9203" y1="398.782" x2="93.1629" y2="403.024" gradientUnits="userSpaceOnUse">
<stop stop-color="#FE5F5F"/>
<stop offset="1" stop-color="#FF9B50"/>
</linearGradient>
</defs>
</svg>
