<svg width="43" height="17" viewBox="0 0 43 17" fill="none" xmlns="http://www.w3.org/2000/svg">
<path d="M40.78 10.1441V8.76707V6.01507H36.78H34.114V4.63803H40.78V1.88603H34.114H30.114V4.63803V6.01507V8.76707H34.114H36.78V10.1441H30.114V12.8961H36.78H40.78V10.1441ZM41.834 9.28319V13.757C41.834 13.8478 41.798 13.9366 41.736 14.0006C41.674 14.0646 41.588 14.1018 41.5 14.1018H37.166V14.7893H42.166C42.254 14.7893 42.34 14.7521 42.402 14.6881C42.464 14.6241 42.5 14.5353 42.5 14.4445V9.28319H41.834ZM5.834 0.337646H0.834C0.746 0.337646 0.66 0.374808 0.598 0.438808C0.536 0.502808 0.5 0.591582 0.5 0.682421V5.84371H1.166V1.3699C1.166 1.27907 1.202 1.19029 1.264 1.12629C1.326 1.06229 1.412 1.02513 1.5 1.02513H5.834V0.337646ZM10.114 16.3376H12.78V10.1441H10.114V16.3376ZM12.448 1.88603H6.114V4.63803H10.114V8.76707H12.78V2.22874C12.78 2.1379 12.744 2.04913 12.682 1.98513C12.62 1.92113 12.534 1.88397 12.446 1.88397L12.448 1.88603ZM4.782 1.88603H2.448C2.36 1.88603 2.274 1.92319 2.212 1.98719C2.15 2.05119 2.114 2.13997 2.114 2.23081V12.5534C2.114 12.6442 2.15 12.733 2.212 12.797C2.274 12.861 2.36 12.8982 2.448 12.8982H8.782V10.1462H4.782V1.8881V1.88603ZM6.116 8.76707H8.782V6.01507H6.116V8.76707ZM6.782 6.70255H8.116V8.07958H6.782V6.70255ZM14.116 1.88603V4.63803H22.116V6.01507H16.782H14.116V8.76707V12.8961H16.782V8.80836L20.782 12.8961H24.782L20.608 8.76707H22.114H24.78V6.01507V4.63803V1.88603H22.114H14.114H14.116ZM26.116 12.8961H28.782V1.88603H26.116V12.8961Z" fill="white"/>
</svg>
